<?xml version="1.0" encoding="UTF-8" standalone="no"?>
<svg width="220px" height="165px" viewBox="0 0 220 165" version="1.1" xmlns="http://www.w3.org/2000/svg" xmlns:xlink="http://www.w3.org/1999/xlink">
    <!-- Generator: Sketch 40.3 (33839) - http://www.bohemiancoding.com/sketch -->
    <title>LambdaSpace_LogoA_LightBG</title>
    <desc>Created with Sketch.</desc>
    <defs>
        <path d="M72.5497474,71.8229 L44.8131,18.1974 L32.4371,16.1354 L26.2784,18.1979 L35.5307566,22.3226132 L49.4529594,50.1665688 L26.2501,78.0104 L38.6251,78.0104 L54.0940063,59.4485125 L63.3751,78.0104 L75.7501,78.0104 L79.8747,71.8229 L72.5497474,71.8229 Z" id="path-1"></path>
        <filter x="-50%" y="-50%" width="200%" height="200%" filterUnits="objectBoundingBox" id="filter-2">
            <feOffset dx="0" dy="0" in="SourceAlpha" result="shadowOffsetOuter1"></feOffset>
            <feGaussianBlur stdDeviation="2" in="shadowOffsetOuter1" result="shadowBlurOuter1"></feGaussianBlur>
            <feColorMatrix values="0 0 0 0 0.203921569   0 0 0 0 0.250980392   0 0 0 0 0.294117647  0 0 0 0.25 0" type="matrix" in="shadowBlurOuter1"></feColorMatrix>
        </filter>
        <linearGradient x1="24.4652074%" y1="81.0292407%" x2="73.4488479%" y2="21.5437803%" id="linearGradient-3">
            <stop stop-color="#EBEBE4" offset="0%"></stop>
            <stop stop-color="#E4E5DE" offset="50%"></stop>
            <stop stop-color="#EFEFEF" offset="100%"></stop>
        </linearGradient>
        <linearGradient x1="24.926087%" y1="91.3193548%" x2="82.2521739%" y2="36.0774194%" id="linearGradient-4">
            <stop stop-color="#E4E5DE" offset="0%"></stop>
            <stop stop-color="#DEDFD8" offset="27.12%"></stop>
            <stop stop-color="#D1D2CB" offset="57.08%"></stop>
            <stop stop-color="#C7C8C1" offset="73.36%"></stop>
            <stop stop-color="#ADAEA7" offset="100%"></stop>
        </linearGradient>
        <linearGradient x1="1.59462366%" y1="102.150896%" x2="99.5394265%" y2="19.9659498%" id="linearGradient-5">
            <stop stop-color="#EBEBE4" offset="0%"></stop>
            <stop stop-color="#EBEBE4" offset="10%"></stop>
            <stop stop-color="#D7D8D3" offset="45.94%"></stop>
            <stop stop-color="#CECFCB" offset="72%"></stop>
            <stop stop-color="#BEBFB9" offset="100%"></stop>
        </linearGradient>
        <linearGradient x1="17.1635135%" y1="54.5580645%" x2="93.8540541%" y2="-9.53387097%" id="linearGradient-6">
            <stop stop-color="#ADAEA7" offset="0%"></stop>
            <stop stop-color="#BDBEB7" offset="17.62%"></stop>
            <stop stop-color="#D9DAD3" offset="54.72%"></stop>
            <stop stop-color="#E4E5DE" offset="76.1%"></stop>
        </linearGradient>
    </defs>
    <g id="Logos" stroke="none" stroke-width="1" fill="none" fill-rule="evenodd">
        <g id="LambdaSpace_LogoA_LightBG">
            <g id="LambdaSpace_Symbol_Opaque" transform="translate(62.000000, 12.000000)">
                <path d="M50,0 C22.3858586,0 0,22.3858586 0,50 C0,77.6141414 22.3858586,100 50,100 C77.6141414,100 100,77.6141414 100,50 C100,22.3858586 77.6141414,0 50,0 Z" id="Circle" fill="#74BBBE" fill-rule="evenodd"></path>
                <g id="Shadow" fill-opacity="1" fill="black">
                    <use filter="url(#filter-2)" xlink:href="#path-1"></use>
                </g>
                <g id="Base" stroke-width="1" fill-rule="evenodd" transform="translate(26.000000, 16.000000)">
                    <polygon id="Fill-3" fill="url(#linearGradient-3)" points="49.7501 62.0104 37.3751 62.0104 6.4371 0.1354 18.8131 2.1974"></polygon>
                    <polygon id="Fill-5" fill="url(#linearGradient-4)" points="9.5314 6.3229 0.2784 2.1979 6.4374 0.1359"></polygon>
                    <polygon id="Fill-7" fill="url(#linearGradient-5)" points="0.2501 62.0104 12.6251 62.0104 28.0941 43.4484 23.4531 34.1664"></polygon>
                    <polygon id="Fill-9" fill="url(#linearGradient-6)" points="46.5497 55.8229 49.7497 62.0099 53.8747 55.8229"></polygon>
                </g>
                <g id="Shadows" stroke-width="1" fill-rule="evenodd" transform="translate(32.000000, 16.000000)">
                    <polygon id="Fill-13" fill="#ADAEA7" points="0.4947 0.2494 0.3957 0.2824 3.3837 6.2574 3.5317 6.3224"></polygon>
                    <polygon id="Fill-15" fill="#BEBFB9" points="17.5037 34.2675 17.4317 34.3535 22.0217 43.5345 22.0937 43.4475"></polygon>
                    <polygon id="Fill-21" fill="#ADAEA7" points="40.603 55.926 43.75 62.01 43.815 61.913 40.719 55.926"></polygon>
                </g>
                <g id="Highlights" stroke-width="1" fill-rule="evenodd" transform="translate(26.000000, 16.000000)" fill="#FFFFFF">
                    <polygon id="Fill-11" points="6.4376 0.1354 6.4946 0.2494 18.7446 2.2914 49.6346 62.0104 49.7506 62.0104 18.8126 2.1984"></polygon>
                    <polygon id="Fill-17" opacity="0.25" points="23.4532 34.1667 0.2502 62.0107 0.3842 62.0107 23.5032 34.2677"></polygon>
                    <polygon id="Fill-19" opacity="0.5" points="6.4376 0.1354 0.2786 2.1984 0.4176 2.2604 6.4946 0.2494"></polygon>
                    <polygon id="Fill-23" opacity="0.5" points="46.603 55.926 53.806 55.926 53.875 55.823 46.55 55.823"></polygon>
                </g>
            </g>
            <g id="LambdaSpace_TextHorizontal_LightBG" transform="translate(7.000000, 128.000000)">
                <path d="M17.482,21.892 L17.482,25 L5.624,25 L5.624,4.756 L9.39,4.756 L9.39,21.892 L17.482,21.892 Z M32.066,17.356 L29.602,10.622 C29.4806661,10.3233318 29.3546673,9.96866872 29.224,9.558 C29.0933327,9.14733128 28.9626673,8.70400238 28.832,8.228 C28.7106661,8.70400238 28.5846673,9.14966459 28.454,9.565 C28.3233327,9.98033541 28.1973339,10.3419985 28.076,10.65 L25.626,17.356 L32.066,17.356 Z M38.716,25 L35.804,25 C35.4773317,25 35.2113344,24.9183341 35.006,24.755 C34.8006656,24.5916658 34.6466672,24.3886679 34.544,24.146 L33.032,20.016 L24.646,20.016 L23.134,24.146 C23.059333,24.3606677 22.9146677,24.5566658 22.7,24.734 C22.4853323,24.9113342 22.2193349,25 21.902,25 L18.962,25 L26.928,4.756 L30.764,4.756 L38.716,25 Z M62.368,4.756 L62.368,25 L59.05,25 L59.05,11.924 C59.05,11.4013307 59.0779997,10.8366697 59.134,10.23 L53.016,21.724 C52.7266652,22.2746694 52.2833363,22.55 51.686,22.55 L51.154,22.55 C50.5566637,22.55 50.1133348,22.2746694 49.824,21.724 L43.636,10.188 C43.6640001,10.4960015 43.6873332,10.7993318 43.706,11.098 C43.7246668,11.3966682 43.734,11.6719987 43.734,11.924 L43.734,25 L40.416,25 L40.416,4.756 L43.258,4.756 C43.4260008,4.756 43.5706661,4.76066662 43.692,4.77 C43.8133339,4.77933338 43.9229995,4.80266648 44.021,4.84 C44.1190005,4.87733352 44.2076663,4.93799958 44.287,5.022 C44.3663337,5.10600042 44.443333,5.2179993 44.518,5.358 L50.58,16.6 C50.7386675,16.8986682 50.885666,17.2066651 51.021,17.524 C51.156334,17.8413349 51.2893327,18.1679983 51.42,18.504 C51.5506673,18.1586649 51.6859993,17.8250016 51.826,17.503 C51.9660007,17.1809984 52.1153325,16.8706682 52.274,16.572 L58.252,5.358 C58.326667,5.2179993 58.4059996,5.10600042 58.49,5.022 C58.5740004,4.93799958 58.6649995,4.87733352 58.763,4.84 C58.8610005,4.80266648 58.9706661,4.77933338 59.092,4.77 C59.2133339,4.76066662 59.3579992,4.756 59.526,4.756 L62.368,4.756 Z M73.65,22.06 C74.3500035,22.06 74.9379976,21.9760008 75.414,21.808 C75.8900024,21.6399992 76.2703319,21.4160014 76.555,21.136 C76.8396681,20.8559986 77.0449994,20.5293352 77.171,20.156 C77.2970006,19.7826648 77.36,19.3860021 77.36,18.966 C77.36,18.5273311 77.2900007,18.1330017 77.15,17.783 C77.0099993,17.4329982 76.7906682,17.1343346 76.492,16.887 C76.1933318,16.6396654 75.8083357,16.4506673 75.337,16.32 C74.8656643,16.1893327 74.29867,16.124 73.636,16.124 L69.842,16.124 L69.842,22.06 L73.65,22.06 Z M69.842,7.668 L69.842,13.52 L72.838,13.52 C74.1260064,13.52 75.0989967,13.286669 75.757,12.82 C76.4150033,12.353331 76.744,11.6113384 76.744,10.594 C76.744,9.53932806 76.4453363,8.78800224 75.848,8.34 C75.2506637,7.89199776 74.3173397,7.668 73.048,7.668 L69.842,7.668 Z M73.048,4.756 C74.37334,4.756 75.5073286,4.88199874 76.45,5.134 C77.3926714,5.38600126 78.164997,5.745331 78.767,6.212 C79.369003,6.678669 79.8099986,7.24333002 80.09,7.906 C80.3700014,8.56866998 80.51,9.31532918 80.51,10.146 C80.51,10.6220024 80.4400007,11.0769978 80.3,11.511 C80.1599993,11.9450022 79.9430015,12.3509981 79.649,12.729 C79.3549985,13.1070019 78.9816689,13.4499985 78.529,13.758 C78.0763311,14.0660015 77.5373365,14.3273323 76.912,14.542 C79.6933472,15.1673365 81.084,16.6699881 81.084,19.05 C81.084,19.908671 80.9206683,20.7019964 80.594,21.43 C80.2673317,22.1580036 79.7913365,22.785664 79.166,23.313 C78.5406635,23.840336 77.7706712,24.2533318 76.856,24.552 C75.9413288,24.8506682 74.8960059,25 73.72,25 L66.076,25 L66.076,4.756 L73.048,4.756 Z M102.09,14.878 C102.09,16.3620074 101.842669,17.7246605 101.348,18.966 C100.853331,20.2073395 100.158004,21.2759955 99.262,22.172 C98.3659955,23.0680045 97.2880063,23.7633309 96.028,24.258 C94.7679937,24.7526691 93.3680077,25 91.828,25 L84.114,25 L84.114,4.756 L91.828,4.756 C93.3680077,4.756 94.7679937,5.00566417 96.028,5.505 C97.2880063,6.00433583 98.3659955,6.69966221 99.262,7.591 C100.158004,8.48233779 100.853331,9.54866046 101.348,10.79 C101.842669,12.0313395 102.09,13.3939926 102.09,14.878 L102.09,14.878 Z M98.226,14.878 C98.226,13.7673278 98.0790015,12.7710044 97.785,11.889 C97.4909985,11.0069956 97.0663361,10.2603364 96.511,9.649 C95.9556639,9.03766361 95.2836706,8.5686683 94.495,8.242 C93.7063294,7.9153317 92.8173383,7.752 91.828,7.752 L87.894,7.752 L87.894,22.004 L91.828,22.004 C92.8173383,22.004 93.7063294,21.8406683 94.495,21.514 C95.2836706,21.1873317 95.9556639,20.7183364 96.511,20.107 C97.0663361,19.4956636 97.4909985,18.7490044 97.785,17.867 C98.0790015,16.9849956 98.226,15.9886722 98.226,14.878 L98.226,14.878 Z M115.504,17.356 L113.04,10.622 C112.918666,10.3233318 112.792667,9.96866872 112.662,9.558 C112.531333,9.14733128 112.400667,8.70400238 112.27,8.228 C112.148666,8.70400238 112.022667,9.14966459 111.892,9.565 C111.761333,9.98033541 111.635334,10.3419985 111.514,10.65 L109.064,17.356 L115.504,17.356 Z M122.154,25 L119.242,25 C118.915332,25 118.649334,24.9183341 118.444,24.755 C118.238666,24.5916658 118.084667,24.3886679 117.982,24.146 L116.47,20.016 L108.084,20.016 L106.572,24.146 C106.497333,24.3606677 106.352668,24.5566658 106.138,24.734 C105.923332,24.9113342 105.657335,25 105.34,25 L102.4,25 L110.366,4.756 L114.202,4.756 L122.154,25 Z" id="LAMBDA" fill="#475260"></path>
                <path d="M135.824,8.074 C135.74,8.2140007 135.649,8.31899965 135.551,8.389 C135.453,8.45900035 135.334001,8.494 135.194,8.494 C135.035333,8.494 134.848668,8.41466746 134.634,8.256 C134.419332,8.09733254 134.151002,7.92233429 133.829,7.731 C133.506998,7.53966571 133.119669,7.36466746 132.667,7.206 C132.214331,7.04733254 131.666003,6.968 131.022,6.968 C130.41533,6.968 129.881002,7.04966585 129.419,7.213 C128.956998,7.37633415 128.569668,7.5979986 128.257,7.878 C127.944332,8.1580014 127.708667,8.48699811 127.55,8.865 C127.391333,9.24300189 127.312,9.65133114 127.312,10.09 C127.312,10.6500028 127.449665,11.1143315 127.725,11.483 C128.000335,11.8516685 128.364331,12.1666654 128.817,12.428 C129.269669,12.6893346 129.782997,12.9156657 130.357,13.107 C130.931003,13.2983343 131.518997,13.4966656 132.121,13.702 C132.723003,13.9073344 133.310997,14.138332 133.885,14.395 C134.459003,14.651668 134.972331,14.975998 135.425,15.368 C135.877669,15.760002 136.241665,16.2406638 136.517,16.81 C136.792335,17.3793362 136.93,18.0793292 136.93,18.91 C136.93,19.7873377 136.780668,20.6109961 136.482,21.381 C136.183332,22.1510038 135.747003,22.8206638 135.173,23.39 C134.598997,23.9593362 133.894338,24.4073317 133.059,24.734 C132.223662,25.0606683 131.274005,25.224 130.21,25.224 C128.903327,25.224 127.718005,24.9883357 126.654,24.517 C125.589995,24.0456643 124.680004,23.4086707 123.924,22.606 L124.708,21.318 C124.782667,21.2153328 124.873666,21.1290003 124.981,21.059 C125.088334,20.9889997 125.207333,20.954 125.338,20.954 C125.459334,20.954 125.596999,21.0029995 125.751,21.101 C125.905001,21.1990005 126.079999,21.3226659 126.276,21.472 C126.472001,21.6213341 126.695999,21.7846658 126.948,21.962 C127.200001,22.1393342 127.486998,22.3026659 127.809,22.452 C128.131002,22.6013341 128.497331,22.7249995 128.908,22.823 C129.318669,22.9210005 129.780664,22.97 130.294,22.97 C130.938003,22.97 131.511997,22.8813342 132.016,22.704 C132.520003,22.5266658 132.946998,22.2770016 133.297,21.955 C133.647002,21.6329984 133.915332,21.2480022 134.102,20.8 C134.288668,20.3519978 134.382,19.8526694 134.382,19.302 C134.382,18.6953303 134.244335,18.1983353 133.969,17.811 C133.693665,17.4236647 133.332002,17.0993346 132.884,16.838 C132.435998,16.5766654 131.92267,16.3550009 131.344,16.173 C130.76533,15.9909991 130.177336,15.8043343 129.58,15.613 C128.982664,15.4216657 128.39467,15.2000013 127.816,14.948 C127.23733,14.6959987 126.724002,14.3693353 126.276,13.968 C125.827998,13.5666647 125.466335,13.065003 125.191,12.463 C124.915665,11.860997 124.778,11.1166711 124.778,10.23 C124.778,9.52066312 124.915665,8.83466998 125.191,8.172 C125.466335,7.50933002 125.867664,6.9213359 126.395,6.408 C126.922336,5.8946641 127.570996,5.48400154 128.341,5.176 C129.111004,4.86799846 129.995328,4.714 130.994,4.714 C132.114006,4.714 133.133662,4.89133156 134.053,5.246 C134.972338,5.60066844 135.781996,6.11399664 136.482,6.786 L135.824,8.074 Z M146.574,15.34 C147.348671,15.34 148.03233,15.2373344 148.625,15.032 C149.21767,14.8266656 149.716998,14.5396685 150.123,14.171 C150.529002,13.8023315 150.834666,13.3613359 151.04,12.848 C151.245334,12.3346641 151.348,11.7700031 151.348,11.154 C151.348,9.87532694 150.953671,8.87667026 150.165,8.158 C149.376329,7.43932974 148.179341,7.08 146.574,7.08 L143.354,7.08 L143.354,15.34 L146.574,15.34 Z M146.574,4.938 C147.84334,4.938 148.946995,5.08499853 149.885,5.379 C150.823005,5.67300147 151.599997,6.09066396 152.216,6.632 C152.832003,7.17333604 153.291665,7.82666284 153.595,8.592 C153.898335,9.35733716 154.05,10.2113286 154.05,11.154 C154.05,12.087338 153.886668,12.9413295 153.56,13.716 C153.233332,14.4906705 152.755003,15.1579972 152.125,15.718 C151.494997,16.2780028 150.715671,16.7143318 149.787,17.027 C148.858329,17.3396682 147.787339,17.496 146.574,17.496 L143.354,17.496 L143.354,25 L140.652,25 L140.652,4.938 L146.574,4.938 Z M165.82,17.552 L162.67,9.39 C162.576666,9.14733212 162.478667,8.86500161 162.376,8.543 C162.273333,8.22099839 162.175334,7.87800182 162.082,7.514 C161.885999,8.27000378 161.685334,8.89999748 161.48,9.404 L158.33,17.552 L165.82,17.552 Z M171.476,25 L169.376,25 C169.133332,25 168.937334,24.9393339 168.788,24.818 C168.638666,24.6966661 168.526667,24.5426676 168.452,24.356 L166.576,19.512 L157.574,19.512 L155.698,24.356 C155.642,24.5240008 155.534667,24.6733327 155.376,24.804 C155.217333,24.9346673 155.021334,25 154.788,25 L152.688,25 L160.71,4.938 L163.454,4.938 L171.476,25 Z M187.088,20.856 C187.237334,20.856 187.367999,20.9166661 187.48,21.038 L188.558,22.2 C187.736663,23.1520048 186.740339,23.8939973 185.569,24.426 C184.397661,24.9580027 182.981342,25.224 181.32,25.224 C179.882659,25.224 178.576006,24.9743358 177.4,24.475 C176.223994,23.9756642 175.220671,23.2756712 174.39,22.375 C173.559329,21.4743288 172.915336,20.3940063 172.458,19.134 C172.000664,17.8739937 171.772,16.4880076 171.772,14.976 C171.772,13.4639924 172.009998,12.0780063 172.486,10.818 C172.962002,9.5579937 173.631662,8.47533786 174.495,7.57 C175.358338,6.66466214 176.391994,5.96233583 177.596,5.463 C178.800006,4.96366417 180.129993,4.714 181.586,4.714 C183.014007,4.714 184.273995,4.94266438 185.366,5.4 C186.458005,5.85733562 187.419329,6.47799608 188.25,7.262 L187.354,8.508 C187.298,8.6013338 187.225667,8.67833303 187.137,8.739 C187.048333,8.79966697 186.929334,8.83 186.78,8.83 C186.611999,8.83 186.406668,8.73900091 186.164,8.557 C185.921332,8.37499909 185.604002,8.17200112 185.212,7.948 C184.819998,7.72399888 184.330003,7.52100091 183.742,7.339 C183.153997,7.15699909 182.430671,7.066 181.572,7.066 C180.535995,7.066 179.588671,7.24566487 178.73,7.605 C177.871329,7.96433513 177.13167,8.48466326 176.511,9.166 C175.89033,9.84733674 175.407335,10.6779951 175.062,11.658 C174.716665,12.6380049 174.544,13.7439938 174.544,14.976 C174.544,16.2266729 174.723665,17.3419951 175.083,18.322 C175.442335,19.3020049 175.93233,20.13033 176.553,20.807 C177.17367,21.4836701 177.906329,21.9993316 178.751,22.354 C179.595671,22.7086684 180.507995,22.886 181.488,22.886 C182.085336,22.886 182.624331,22.8510003 183.105,22.781 C183.585669,22.7109996 184.028998,22.6013341 184.435,22.452 C184.841002,22.3026659 185.218998,22.1136678 185.569,21.885 C185.919002,21.6563322 186.266665,21.3833349 186.612,21.066 C186.770667,20.9259993 186.929333,20.856 187.088,20.856 L187.088,20.856 Z M203.584,22.788 L203.57,25 L191.208,25 L191.208,4.938 L203.57,4.938 L203.57,7.15 L193.924,7.15 L193.924,13.814 L201.736,13.814 L201.736,15.942 L193.924,15.942 L193.924,22.788 L203.584,22.788 Z" id="SPACE" fill="#EFB57E"></path>
            </g>
        </g>
    </g>
</svg>