<?xml version="1.0" encoding="UTF-8" standalone="no"?>
<svg width="224px" height="144px" viewBox="0 0 224 144" version="1.1" xmlns="http://www.w3.org/2000/svg" xmlns:xlink="http://www.w3.org/1999/xlink">
    <!-- Generator: Sketch 40.3 (33839) - http://www.bohemiancoding.com/sketch -->
    <title>LambdaSpace_Pattern_LightBG</title>
    <desc>Created with Sketch.</desc>
    <defs>
        <rect id="path-1" x="0" y="0" width="224" height="144"></rect>
    </defs>
    <g id="Resources" stroke="none" stroke-width="1" fill="none" fill-rule="evenodd">
        <g id="LambdaSpace_Pattern_LightBG">
            <g id="PatternA_02">
                <g id="Group-3">
                    <mask id="mask-2" fill="white">
                        <use xlink:href="#path-1"></use>
                    </mask>
                    <g id="Mask"></g>
                    <g mask="url(#mask-2)">
                        <g transform="translate(0.000000, -36.000000)">
                            <g id="Group-2" transform="translate(0.000000, 108.000000)">
                                <g id="LambdaSpace_LambdaWireframe_LightBG" fill="#42505E">
                                    <path d="M42.125,66.375 L42.5722121,66.6513903 L11.6342121,4.77639031 L11.1048264,5.49320127 L23.4808264,7.55520127 L23.1188889,7.29170702 L54.0558889,67.104707 L54.5,66.375 L42.125,66.375 Z M54.9441111,66.645293 L24.0071111,6.83229298 C23.9347227,6.69233861 23.800598,6.59469441 23.6451736,6.56879873 L11.2691736,4.50679873 C10.8660972,4.43964103 10.5570393,4.85811853 10.7397879,5.22360969 L41.6777879,67.0986097 C41.7624844,67.2680001 41.9356151,67.375 42.125,67.375 L54.5,67.375 C54.8746872,67.375 55.1162477,66.9780985 54.9441111,66.645293 Z" id="Fill-3"></path>
                                    <path d="M5.23188656,6.6058245 L5.1870373,7.53663339 L11.3460373,5.47463339 L10.7401009,5.22413571 L13.8341009,11.4111357 L14.4848866,10.7308245 L5.23188656,6.6058245 Z M14.7284991,10.9638643 L11.6344991,4.77686429 C11.5231006,4.55410317 11.2647404,4.44729558 11.0285627,4.52636661 L4.8695627,6.58836661 C4.43725895,6.73309958 4.40832739,7.33355003 4.82471344,7.5191755 L14.0777134,11.6441755 C14.5064349,11.8353001 14.9384457,11.3836895 14.7284991,10.9638643 Z" id="Fill-5"></path>
                                    <path d="M17.375,67.375 C17.5233862,67.375 17.6641069,67.3090918 17.7591039,67.1951003 L33.2281039,48.6331003 C33.3552815,48.4804938 33.3800538,48.2670736 33.2912136,48.0893932 L28.6502136,38.8073932 C28.4889585,38.4848831 28.0497211,38.4339057 27.8188871,38.7109105 L4.6158871,66.5549105 C4.34450424,66.8805746 4.57608283,67.375 5,67.375 L17.375,67.375 Z M5.3841129,67.1950895 L28.5871129,39.3510895 L27.7557864,39.2546068 L32.3967864,48.5366068 L32.4598961,47.9928997 L16.9908961,66.5548997 L17.375,66.375 L5,66.375 L5.3841129,67.1950895 Z" id="Fill-7"></path>
                                    <path d="M54.0554861,67.1042017 C54.2304609,67.4425044 54.7043322,67.468764 54.9156148,67.1518656 L59.0406148,60.9648656 C59.2621501,60.6325895 59.0239561,60.1875 58.6246,60.1875 L51.2996,60.1875 C50.9249155,60.1875 50.6833548,60.5843965 50.8554861,60.9172017 L54.0554861,67.1042017 Z M51.2996,61.1875 L58.6246,61.1875 L58.2085852,60.4101344 L54.0835852,66.5971344 L54.9437139,66.6447983 L51.7437139,60.4577983 L51.2996,61.1875 Z" id="Fill-9"></path>
                                </g>
                                <g id="LambdaSpace_LambdaWireframe_LightBG" transform="translate(80.000000, 36.000000) rotate(-180.000000) translate(-80.000000, -36.000000) translate(48.000000, 0.000000)" fill="#42505E">
                                    <path d="M42.125,66.375 L42.5722121,66.6513903 L11.6342121,4.77639031 L11.1048264,5.49320127 L23.4808264,7.55520127 L23.1188889,7.29170702 L54.0558889,67.104707 L54.5,66.375 L42.125,66.375 Z M54.9441111,66.645293 L24.0071111,6.83229298 C23.9347227,6.69233861 23.800598,6.59469441 23.6451736,6.56879873 L11.2691736,4.50679873 C10.8660972,4.43964103 10.5570393,4.85811853 10.7397879,5.22360969 L41.6777879,67.0986097 C41.7624844,67.2680001 41.9356151,67.375 42.125,67.375 L54.5,67.375 C54.8746872,67.375 55.1162477,66.9780985 54.9441111,66.645293 Z" id="Fill-3"></path>
                                    <path d="M5.23188656,6.6058245 L5.1870373,7.53663339 L11.3460373,5.47463339 L10.7401009,5.22413571 L13.8341009,11.4111357 L14.4848866,10.7308245 L5.23188656,6.6058245 Z M14.7284991,10.9638643 L11.6344991,4.77686429 C11.5231006,4.55410317 11.2647404,4.44729558 11.0285627,4.52636661 L4.8695627,6.58836661 C4.43725895,6.73309958 4.40832739,7.33355003 4.82471344,7.5191755 L14.0777134,11.6441755 C14.5064349,11.8353001 14.9384457,11.3836895 14.7284991,10.9638643 Z" id="Fill-5"></path>
                                    <path d="M17.375,67.375 C17.5233862,67.375 17.6641069,67.3090918 17.7591039,67.1951003 L33.2281039,48.6331003 C33.3552815,48.4804938 33.3800538,48.2670736 33.2912136,48.0893932 L28.6502136,38.8073932 C28.4889585,38.4848831 28.0497211,38.4339057 27.8188871,38.7109105 L4.6158871,66.5549105 C4.34450424,66.8805746 4.57608283,67.375 5,67.375 L17.375,67.375 Z M5.3841129,67.1950895 L28.5871129,39.3510895 L27.7557864,39.2546068 L32.3967864,48.5366068 L32.4598961,47.9928997 L16.9908961,66.5548997 L17.375,66.375 L5,66.375 L5.3841129,67.1950895 Z" id="Fill-7"></path>
                                    <path d="M54.0554861,67.1042017 C54.2304609,67.4425044 54.7043322,67.468764 54.9156148,67.1518656 L59.0406148,60.9648656 C59.2621501,60.6325895 59.0239561,60.1875 58.6246,60.1875 L51.2996,60.1875 C50.9249155,60.1875 50.6833548,60.5843965 50.8554861,60.9172017 L54.0554861,67.1042017 Z M51.2996,61.1875 L58.6246,61.1875 L58.2085852,60.4101344 L54.0835852,66.5971344 L54.9437139,66.6447983 L51.7437139,60.4577983 L51.2996,61.1875 Z" id="Fill-9"></path>
                                </g>
                            </g>
                            <g id="Group-2-Copy-2" transform="translate(112.000000, 72.000000)">
                                <g id="LambdaSpace_LambdaWireframe_LightBG" fill="#42505E">
                                    <path d="M42.125,66.375 L42.5722121,66.6513903 L11.6342121,4.77639031 L11.1048264,5.49320127 L23.4808264,7.55520127 L23.1188889,7.29170702 L54.0558889,67.104707 L54.5,66.375 L42.125,66.375 Z M54.9441111,66.645293 L24.0071111,6.83229298 C23.9347227,6.69233861 23.800598,6.59469441 23.6451736,6.56879873 L11.2691736,4.50679873 C10.8660972,4.43964103 10.5570393,4.85811853 10.7397879,5.22360969 L41.6777879,67.0986097 C41.7624844,67.2680001 41.9356151,67.375 42.125,67.375 L54.5,67.375 C54.8746872,67.375 55.1162477,66.9780985 54.9441111,66.645293 Z" id="Fill-3"></path>
                                    <path d="M5.23188656,6.6058245 L5.1870373,7.53663339 L11.3460373,5.47463339 L10.7401009,5.22413571 L13.8341009,11.4111357 L14.4848866,10.7308245 L5.23188656,6.6058245 Z M14.7284991,10.9638643 L11.6344991,4.77686429 C11.5231006,4.55410317 11.2647404,4.44729558 11.0285627,4.52636661 L4.8695627,6.58836661 C4.43725895,6.73309958 4.40832739,7.33355003 4.82471344,7.5191755 L14.0777134,11.6441755 C14.5064349,11.8353001 14.9384457,11.3836895 14.7284991,10.9638643 Z" id="Fill-5"></path>
                                    <path d="M17.375,67.375 C17.5233862,67.375 17.6641069,67.3090918 17.7591039,67.1951003 L33.2281039,48.6331003 C33.3552815,48.4804938 33.3800538,48.2670736 33.2912136,48.0893932 L28.6502136,38.8073932 C28.4889585,38.4848831 28.0497211,38.4339057 27.8188871,38.7109105 L4.6158871,66.5549105 C4.34450424,66.8805746 4.57608283,67.375 5,67.375 L17.375,67.375 Z M5.3841129,67.1950895 L28.5871129,39.3510895 L27.7557864,39.2546068 L32.3967864,48.5366068 L32.4598961,47.9928997 L16.9908961,66.5548997 L17.375,66.375 L5,66.375 L5.3841129,67.1950895 Z" id="Fill-7"></path>
                                    <path d="M54.0554861,67.1042017 C54.2304609,67.4425044 54.7043322,67.468764 54.9156148,67.1518656 L59.0406148,60.9648656 C59.2621501,60.6325895 59.0239561,60.1875 58.6246,60.1875 L51.2996,60.1875 C50.9249155,60.1875 50.6833548,60.5843965 50.8554861,60.9172017 L54.0554861,67.1042017 Z M51.2996,61.1875 L58.6246,61.1875 L58.2085852,60.4101344 L54.0835852,66.5971344 L54.9437139,66.6447983 L51.7437139,60.4577983 L51.2996,61.1875 Z" id="Fill-9"></path>
                                </g>
                                <g id="LambdaSpace_LambdaWireframe_LightBG" transform="translate(80.000000, 36.000000) rotate(-180.000000) translate(-80.000000, -36.000000) translate(48.000000, 0.000000)" fill="#42505E">
                                    <path d="M42.125,66.375 L42.5722121,66.6513903 L11.6342121,4.77639031 L11.1048264,5.49320127 L23.4808264,7.55520127 L23.1188889,7.29170702 L54.0558889,67.104707 L54.5,66.375 L42.125,66.375 Z M54.9441111,66.645293 L24.0071111,6.83229298 C23.9347227,6.69233861 23.800598,6.59469441 23.6451736,6.56879873 L11.2691736,4.50679873 C10.8660972,4.43964103 10.5570393,4.85811853 10.7397879,5.22360969 L41.6777879,67.0986097 C41.7624844,67.2680001 41.9356151,67.375 42.125,67.375 L54.5,67.375 C54.8746872,67.375 55.1162477,66.9780985 54.9441111,66.645293 Z" id="Fill-3"></path>
                                    <path d="M5.23188656,6.6058245 L5.1870373,7.53663339 L11.3460373,5.47463339 L10.7401009,5.22413571 L13.8341009,11.4111357 L14.4848866,10.7308245 L5.23188656,6.6058245 Z M14.7284991,10.9638643 L11.6344991,4.77686429 C11.5231006,4.55410317 11.2647404,4.44729558 11.0285627,4.52636661 L4.8695627,6.58836661 C4.43725895,6.73309958 4.40832739,7.33355003 4.82471344,7.5191755 L14.0777134,11.6441755 C14.5064349,11.8353001 14.9384457,11.3836895 14.7284991,10.9638643 Z" id="Fill-5"></path>
                                    <path d="M17.375,67.375 C17.5233862,67.375 17.6641069,67.3090918 17.7591039,67.1951003 L33.2281039,48.6331003 C33.3552815,48.4804938 33.3800538,48.2670736 33.2912136,48.0893932 L28.6502136,38.8073932 C28.4889585,38.4848831 28.0497211,38.4339057 27.8188871,38.7109105 L4.6158871,66.5549105 C4.34450424,66.8805746 4.57608283,67.375 5,67.375 L17.375,67.375 Z M5.3841129,67.1950895 L28.5871129,39.3510895 L27.7557864,39.2546068 L32.3967864,48.5366068 L32.4598961,47.9928997 L16.9908961,66.5548997 L17.375,66.375 L5,66.375 L5.3841129,67.1950895 Z" id="Fill-7"></path>
                                    <path d="M54.0554861,67.1042017 C54.2304609,67.4425044 54.7043322,67.468764 54.9156148,67.1518656 L59.0406148,60.9648656 C59.2621501,60.6325895 59.0239561,60.1875 58.6246,60.1875 L51.2996,60.1875 C50.9249155,60.1875 50.6833548,60.5843965 50.8554861,60.9172017 L54.0554861,67.1042017 Z M51.2996,61.1875 L58.6246,61.1875 L58.2085852,60.4101344 L54.0835852,66.5971344 L54.9437139,66.6447983 L51.7437139,60.4577983 L51.2996,61.1875 Z" id="Fill-9"></path>
                                </g>
                            </g>
                            <g id="Group-2-Copy-3" transform="translate(0.000000, 36.000000)">
                                <g id="LambdaSpace_LambdaWireframe_LightBG" fill="#42505E">
                                    <path d="M42.125,66.375 L42.5722121,66.6513903 L11.6342121,4.77639031 L11.1048264,5.49320127 L23.4808264,7.55520127 L23.1188889,7.29170702 L54.0558889,67.104707 L54.5,66.375 L42.125,66.375 Z M54.9441111,66.645293 L24.0071111,6.83229298 C23.9347227,6.69233861 23.800598,6.59469441 23.6451736,6.56879873 L11.2691736,4.50679873 C10.8660972,4.43964103 10.5570393,4.85811853 10.7397879,5.22360969 L41.6777879,67.0986097 C41.7624844,67.2680001 41.9356151,67.375 42.125,67.375 L54.5,67.375 C54.8746872,67.375 55.1162477,66.9780985 54.9441111,66.645293 Z" id="Fill-3"></path>
                                    <path d="M5.23188656,6.6058245 L5.1870373,7.53663339 L11.3460373,5.47463339 L10.7401009,5.22413571 L13.8341009,11.4111357 L14.4848866,10.7308245 L5.23188656,6.6058245 Z M14.7284991,10.9638643 L11.6344991,4.77686429 C11.5231006,4.55410317 11.2647404,4.44729558 11.0285627,4.52636661 L4.8695627,6.58836661 C4.43725895,6.73309958 4.40832739,7.33355003 4.82471344,7.5191755 L14.0777134,11.6441755 C14.5064349,11.8353001 14.9384457,11.3836895 14.7284991,10.9638643 Z" id="Fill-5"></path>
                                    <path d="M17.375,67.375 C17.5233862,67.375 17.6641069,67.3090918 17.7591039,67.1951003 L33.2281039,48.6331003 C33.3552815,48.4804938 33.3800538,48.2670736 33.2912136,48.0893932 L28.6502136,38.8073932 C28.4889585,38.4848831 28.0497211,38.4339057 27.8188871,38.7109105 L4.6158871,66.5549105 C4.34450424,66.8805746 4.57608283,67.375 5,67.375 L17.375,67.375 Z M5.3841129,67.1950895 L28.5871129,39.3510895 L27.7557864,39.2546068 L32.3967864,48.5366068 L32.4598961,47.9928997 L16.9908961,66.5548997 L17.375,66.375 L5,66.375 L5.3841129,67.1950895 Z" id="Fill-7"></path>
                                    <path d="M54.0554861,67.1042017 C54.2304609,67.4425044 54.7043322,67.468764 54.9156148,67.1518656 L59.0406148,60.9648656 C59.2621501,60.6325895 59.0239561,60.1875 58.6246,60.1875 L51.2996,60.1875 C50.9249155,60.1875 50.6833548,60.5843965 50.8554861,60.9172017 L54.0554861,67.1042017 Z M51.2996,61.1875 L58.6246,61.1875 L58.2085852,60.4101344 L54.0835852,66.5971344 L54.9437139,66.6447983 L51.7437139,60.4577983 L51.2996,61.1875 Z" id="Fill-9"></path>
                                </g>
                                <g id="LambdaSpace_LambdaWireframe_LightBG" transform="translate(80.000000, 36.000000) rotate(-180.000000) translate(-80.000000, -36.000000) translate(48.000000, 0.000000)" fill="#42505E">
                                    <path d="M42.125,66.375 L42.5722121,66.6513903 L11.6342121,4.77639031 L11.1048264,5.49320127 L23.4808264,7.55520127 L23.1188889,7.29170702 L54.0558889,67.104707 L54.5,66.375 L42.125,66.375 Z M54.9441111,66.645293 L24.0071111,6.83229298 C23.9347227,6.69233861 23.800598,6.59469441 23.6451736,6.56879873 L11.2691736,4.50679873 C10.8660972,4.43964103 10.5570393,4.85811853 10.7397879,5.22360969 L41.6777879,67.0986097 C41.7624844,67.2680001 41.9356151,67.375 42.125,67.375 L54.5,67.375 C54.8746872,67.375 55.1162477,66.9780985 54.9441111,66.645293 Z" id="Fill-3"></path>
                                    <path d="M5.23188656,6.6058245 L5.1870373,7.53663339 L11.3460373,5.47463339 L10.7401009,5.22413571 L13.8341009,11.4111357 L14.4848866,10.7308245 L5.23188656,6.6058245 Z M14.7284991,10.9638643 L11.6344991,4.77686429 C11.5231006,4.55410317 11.2647404,4.44729558 11.0285627,4.52636661 L4.8695627,6.58836661 C4.43725895,6.73309958 4.40832739,7.33355003 4.82471344,7.5191755 L14.0777134,11.6441755 C14.5064349,11.8353001 14.9384457,11.3836895 14.7284991,10.9638643 Z" id="Fill-5"></path>
                                    <path d="M17.375,67.375 C17.5233862,67.375 17.6641069,67.3090918 17.7591039,67.1951003 L33.2281039,48.6331003 C33.3552815,48.4804938 33.3800538,48.2670736 33.2912136,48.0893932 L28.6502136,38.8073932 C28.4889585,38.4848831 28.0497211,38.4339057 27.8188871,38.7109105 L4.6158871,66.5549105 C4.34450424,66.8805746 4.57608283,67.375 5,67.375 L17.375,67.375 Z M5.3841129,67.1950895 L28.5871129,39.3510895 L27.7557864,39.2546068 L32.3967864,48.5366068 L32.4598961,47.9928997 L16.9908961,66.5548997 L17.375,66.375 L5,66.375 L5.3841129,67.1950895 Z" id="Fill-7"></path>
                                    <path d="M54.0554861,67.1042017 C54.2304609,67.4425044 54.7043322,67.468764 54.9156148,67.1518656 L59.0406148,60.9648656 C59.2621501,60.6325895 59.0239561,60.1875 58.6246,60.1875 L51.2996,60.1875 C50.9249155,60.1875 50.6833548,60.5843965 50.8554861,60.9172017 L54.0554861,67.1042017 Z M51.2996,61.1875 L58.6246,61.1875 L58.2085852,60.4101344 L54.0835852,66.5971344 L54.9437139,66.6447983 L51.7437139,60.4577983 L51.2996,61.1875 Z" id="Fill-9"></path>
                                </g>
                            </g>
                            <g id="Group-2-Copy-5" transform="translate(112.000000, 0.000000)">
                                <g id="LambdaSpace_LambdaWireframe_LightBG" fill="#42505E">
                                    <path d="M42.125,66.375 L42.5722121,66.6513903 L11.6342121,4.77639031 L11.1048264,5.49320127 L23.4808264,7.55520127 L23.1188889,7.29170702 L54.0558889,67.104707 L54.5,66.375 L42.125,66.375 Z M54.9441111,66.645293 L24.0071111,6.83229298 C23.9347227,6.69233861 23.800598,6.59469441 23.6451736,6.56879873 L11.2691736,4.50679873 C10.8660972,4.43964103 10.5570393,4.85811853 10.7397879,5.22360969 L41.6777879,67.0986097 C41.7624844,67.2680001 41.9356151,67.375 42.125,67.375 L54.5,67.375 C54.8746872,67.375 55.1162477,66.9780985 54.9441111,66.645293 Z" id="Fill-3"></path>
                                    <path d="M5.23188656,6.6058245 L5.1870373,7.53663339 L11.3460373,5.47463339 L10.7401009,5.22413571 L13.8341009,11.4111357 L14.4848866,10.7308245 L5.23188656,6.6058245 Z M14.7284991,10.9638643 L11.6344991,4.77686429 C11.5231006,4.55410317 11.2647404,4.44729558 11.0285627,4.52636661 L4.8695627,6.58836661 C4.43725895,6.73309958 4.40832739,7.33355003 4.82471344,7.5191755 L14.0777134,11.6441755 C14.5064349,11.8353001 14.9384457,11.3836895 14.7284991,10.9638643 Z" id="Fill-5"></path>
                                    <path d="M17.375,67.375 C17.5233862,67.375 17.6641069,67.3090918 17.7591039,67.1951003 L33.2281039,48.6331003 C33.3552815,48.4804938 33.3800538,48.2670736 33.2912136,48.0893932 L28.6502136,38.8073932 C28.4889585,38.4848831 28.0497211,38.4339057 27.8188871,38.7109105 L4.6158871,66.5549105 C4.34450424,66.8805746 4.57608283,67.375 5,67.375 L17.375,67.375 Z M5.3841129,67.1950895 L28.5871129,39.3510895 L27.7557864,39.2546068 L32.3967864,48.5366068 L32.4598961,47.9928997 L16.9908961,66.5548997 L17.375,66.375 L5,66.375 L5.3841129,67.1950895 Z" id="Fill-7"></path>
                                    <path d="M54.0554861,67.1042017 C54.2304609,67.4425044 54.7043322,67.468764 54.9156148,67.1518656 L59.0406148,60.9648656 C59.2621501,60.6325895 59.0239561,60.1875 58.6246,60.1875 L51.2996,60.1875 C50.9249155,60.1875 50.6833548,60.5843965 50.8554861,60.9172017 L54.0554861,67.1042017 Z M51.2996,61.1875 L58.6246,61.1875 L58.2085852,60.4101344 L54.0835852,66.5971344 L54.9437139,66.6447983 L51.7437139,60.4577983 L51.2996,61.1875 Z" id="Fill-9"></path>
                                </g>
                                <g id="LambdaSpace_LambdaWireframe_LightBG" transform="translate(80.000000, 36.000000) rotate(-180.000000) translate(-80.000000, -36.000000) translate(48.000000, 0.000000)" fill="#42505E">
                                    <path d="M42.125,66.375 L42.5722121,66.6513903 L11.6342121,4.77639031 L11.1048264,5.49320127 L23.4808264,7.55520127 L23.1188889,7.29170702 L54.0558889,67.104707 L54.5,66.375 L42.125,66.375 Z M54.9441111,66.645293 L24.0071111,6.83229298 C23.9347227,6.69233861 23.800598,6.59469441 23.6451736,6.56879873 L11.2691736,4.50679873 C10.8660972,4.43964103 10.5570393,4.85811853 10.7397879,5.22360969 L41.6777879,67.0986097 C41.7624844,67.2680001 41.9356151,67.375 42.125,67.375 L54.5,67.375 C54.8746872,67.375 55.1162477,66.9780985 54.9441111,66.645293 Z" id="Fill-3"></path>
                                    <path d="M5.23188656,6.6058245 L5.1870373,7.53663339 L11.3460373,5.47463339 L10.7401009,5.22413571 L13.8341009,11.4111357 L14.4848866,10.7308245 L5.23188656,6.6058245 Z M14.7284991,10.9638643 L11.6344991,4.77686429 C11.5231006,4.55410317 11.2647404,4.44729558 11.0285627,4.52636661 L4.8695627,6.58836661 C4.43725895,6.73309958 4.40832739,7.33355003 4.82471344,7.5191755 L14.0777134,11.6441755 C14.5064349,11.8353001 14.9384457,11.3836895 14.7284991,10.9638643 Z" id="Fill-5"></path>
                                    <path d="M17.375,67.375 C17.5233862,67.375 17.6641069,67.3090918 17.7591039,67.1951003 L33.2281039,48.6331003 C33.3552815,48.4804938 33.3800538,48.2670736 33.2912136,48.0893932 L28.6502136,38.8073932 C28.4889585,38.4848831 28.0497211,38.4339057 27.8188871,38.7109105 L4.6158871,66.5549105 C4.34450424,66.8805746 4.57608283,67.375 5,67.375 L17.375,67.375 Z M5.3841129,67.1950895 L28.5871129,39.3510895 L27.7557864,39.2546068 L32.3967864,48.5366068 L32.4598961,47.9928997 L16.9908961,66.5548997 L17.375,66.375 L5,66.375 L5.3841129,67.1950895 Z" id="Fill-7"></path>
                                    <path d="M54.0554861,67.1042017 C54.2304609,67.4425044 54.7043322,67.468764 54.9156148,67.1518656 L59.0406148,60.9648656 C59.2621501,60.6325895 59.0239561,60.1875 58.6246,60.1875 L51.2996,60.1875 C50.9249155,60.1875 50.6833548,60.5843965 50.8554861,60.9172017 L54.0554861,67.1042017 Z M51.2996,61.1875 L58.6246,61.1875 L58.2085852,60.4101344 L54.0835852,66.5971344 L54.9437139,66.6447983 L51.7437139,60.4577983 L51.2996,61.1875 Z" id="Fill-9"></path>
                                </g>
                            </g>
                            <g id="Group-2" transform="translate(112.000000, 144.000000)">
                                <g id="LambdaSpace_LambdaWireframe_LightBG" fill="#42505E">
                                    <path d="M42.125,66.375 L42.5722121,66.6513903 L11.6342121,4.77639031 L11.1048264,5.49320127 L23.4808264,7.55520127 L23.1188889,7.29170702 L54.0558889,67.104707 L54.5,66.375 L42.125,66.375 Z M54.9441111,66.645293 L24.0071111,6.83229298 C23.9347227,6.69233861 23.800598,6.59469441 23.6451736,6.56879873 L11.2691736,4.50679873 C10.8660972,4.43964103 10.5570393,4.85811853 10.7397879,5.22360969 L41.6777879,67.0986097 C41.7624844,67.2680001 41.9356151,67.375 42.125,67.375 L54.5,67.375 C54.8746872,67.375 55.1162477,66.9780985 54.9441111,66.645293 Z" id="Fill-3"></path>
                                    <path d="M5.23188656,6.6058245 L5.1870373,7.53663339 L11.3460373,5.47463339 L10.7401009,5.22413571 L13.8341009,11.4111357 L14.4848866,10.7308245 L5.23188656,6.6058245 Z M14.7284991,10.9638643 L11.6344991,4.77686429 C11.5231006,4.55410317 11.2647404,4.44729558 11.0285627,4.52636661 L4.8695627,6.58836661 C4.43725895,6.73309958 4.40832739,7.33355003 4.82471344,7.5191755 L14.0777134,11.6441755 C14.5064349,11.8353001 14.9384457,11.3836895 14.7284991,10.9638643 Z" id="Fill-5"></path>
                                    <path d="M17.375,67.375 C17.5233862,67.375 17.6641069,67.3090918 17.7591039,67.1951003 L33.2281039,48.6331003 C33.3552815,48.4804938 33.3800538,48.2670736 33.2912136,48.0893932 L28.6502136,38.8073932 C28.4889585,38.4848831 28.0497211,38.4339057 27.8188871,38.7109105 L4.6158871,66.5549105 C4.34450424,66.8805746 4.57608283,67.375 5,67.375 L17.375,67.375 Z M5.3841129,67.1950895 L28.5871129,39.3510895 L27.7557864,39.2546068 L32.3967864,48.5366068 L32.4598961,47.9928997 L16.9908961,66.5548997 L17.375,66.375 L5,66.375 L5.3841129,67.1950895 Z" id="Fill-7"></path>
                                    <path d="M54.0554861,67.1042017 C54.2304609,67.4425044 54.7043322,67.468764 54.9156148,67.1518656 L59.0406148,60.9648656 C59.2621501,60.6325895 59.0239561,60.1875 58.6246,60.1875 L51.2996,60.1875 C50.9249155,60.1875 50.6833548,60.5843965 50.8554861,60.9172017 L54.0554861,67.1042017 Z M51.2996,61.1875 L58.6246,61.1875 L58.2085852,60.4101344 L54.0835852,66.5971344 L54.9437139,66.6447983 L51.7437139,60.4577983 L51.2996,61.1875 Z" id="Fill-9"></path>
                                </g>
                                <g id="LambdaSpace_LambdaWireframe_LightBG" transform="translate(80.000000, 36.000000) rotate(-180.000000) translate(-80.000000, -36.000000) translate(48.000000, 0.000000)" fill="#42505E">
                                    <path d="M42.125,66.375 L42.5722121,66.6513903 L11.6342121,4.77639031 L11.1048264,5.49320127 L23.4808264,7.55520127 L23.1188889,7.29170702 L54.0558889,67.104707 L54.5,66.375 L42.125,66.375 Z M54.9441111,66.645293 L24.0071111,6.83229298 C23.9347227,6.69233861 23.800598,6.59469441 23.6451736,6.56879873 L11.2691736,4.50679873 C10.8660972,4.43964103 10.5570393,4.85811853 10.7397879,5.22360969 L41.6777879,67.0986097 C41.7624844,67.2680001 41.9356151,67.375 42.125,67.375 L54.5,67.375 C54.8746872,67.375 55.1162477,66.9780985 54.9441111,66.645293 Z" id="Fill-3"></path>
                                    <path d="M5.23188656,6.6058245 L5.1870373,7.53663339 L11.3460373,5.47463339 L10.7401009,5.22413571 L13.8341009,11.4111357 L14.4848866,10.7308245 L5.23188656,6.6058245 Z M14.7284991,10.9638643 L11.6344991,4.77686429 C11.5231006,4.55410317 11.2647404,4.44729558 11.0285627,4.52636661 L4.8695627,6.58836661 C4.43725895,6.73309958 4.40832739,7.33355003 4.82471344,7.5191755 L14.0777134,11.6441755 C14.5064349,11.8353001 14.9384457,11.3836895 14.7284991,10.9638643 Z" id="Fill-5"></path>
                                    <path d="M17.375,67.375 C17.5233862,67.375 17.6641069,67.3090918 17.7591039,67.1951003 L33.2281039,48.6331003 C33.3552815,48.4804938 33.3800538,48.2670736 33.2912136,48.0893932 L28.6502136,38.8073932 C28.4889585,38.4848831 28.0497211,38.4339057 27.8188871,38.7109105 L4.6158871,66.5549105 C4.34450424,66.8805746 4.57608283,67.375 5,67.375 L17.375,67.375 Z M5.3841129,67.1950895 L28.5871129,39.3510895 L27.7557864,39.2546068 L32.3967864,48.5366068 L32.4598961,47.9928997 L16.9908961,66.5548997 L17.375,66.375 L5,66.375 L5.3841129,67.1950895 Z" id="Fill-7"></path>
                                    <path d="M54.0554861,67.1042017 C54.2304609,67.4425044 54.7043322,67.468764 54.9156148,67.1518656 L59.0406148,60.9648656 C59.2621501,60.6325895 59.0239561,60.1875 58.6246,60.1875 L51.2996,60.1875 C50.9249155,60.1875 50.6833548,60.5843965 50.8554861,60.9172017 L54.0554861,67.1042017 Z M51.2996,61.1875 L58.6246,61.1875 L58.2085852,60.4101344 L54.0835852,66.5971344 L54.9437139,66.6447983 L51.7437139,60.4577983 L51.2996,61.1875 Z" id="Fill-9"></path>
                                </g>
                            </g>
                        </g>
                    </g>
                </g>
            </g>
        </g>
    </g>
</svg>