<?xml version="1.0" encoding="UTF-8" standalone="no"?>
<svg width="100px" height="100px" viewBox="0 0 100 100" version="1.1" xmlns="http://www.w3.org/2000/svg" xmlns:xlink="http://www.w3.org/1999/xlink">
    <!-- Generator: Sketch 40.3 (33839) - http://www.bohemiancoding.com/sketch -->
    <title>LambdaSpace_Symbol_Wireframe_LightBG</title>
    <desc>Created with Sketch.</desc>
    <defs></defs>
    <g id="Symbols" stroke="none" stroke-width="1" fill="none" fill-rule="evenodd">
        <g id="LambdaSpace_Symbol_Wireframe_LightBG" fill="#42505E">
            <path d="M2,50 C2,76.5095719 23.4904281,98 50,98 C76.5095719,98 98,76.5095719 98,50 C98,23.4904281 76.5095719,2 50,2 C23.4904281,2 2,23.4904281 2,50 Z M100,50 C100,77.6141414 77.6141414,100 50,100 C22.3858586,100 0,77.6141414 0,50 C0,22.3858586 22.3858586,0 50,0 C77.6141414,0 100,22.3858586 100,50 Z" id="Circle"></path>
            <path d="M63.3751,77.5104 L63.8223121,77.7867903 L32.8843121,15.9117903 L32.3549264,16.6286013 L44.7309264,18.6906013 L44.3689889,18.427107 L75.3059889,78.240107 L75.7501,77.5104 L63.3751,77.5104 Z M76.1942111,77.780693 L45.2572111,17.967693 C45.1848227,17.8277386 45.050698,17.7300944 44.8952736,17.7041987 L32.5192736,15.6421987 C32.1161972,15.575041 31.8071393,15.9935185 31.9898879,16.3590097 L62.9278879,78.2340097 C63.0125844,78.4034001 63.1857151,78.5104 63.3751,78.5104 L75.7501,78.5104 C76.1247872,78.5104 76.3663477,78.1134985 76.1942111,77.780693 Z" id="Fill-3"></path>
            <path d="M26.4819866,17.7412245 L26.4371373,18.6720334 L32.5961373,16.6100334 L31.9902009,16.3595357 L35.0842009,22.5465357 L35.7349866,21.8662245 L26.4819866,17.7412245 Z M35.9785991,22.0992643 L32.8845991,15.9122643 C32.7732006,15.6895032 32.5148404,15.5826956 32.2786627,15.6617666 L26.1196627,17.7237666 C25.687359,17.8684996 25.6584274,18.46895 26.0748134,18.6545755 L35.3278134,22.7795755 C35.7565349,22.9707001 36.1885457,22.5190895 35.9785991,22.0992643 Z" id="Fill-5"></path>
            <path d="M38.6251,78.5104 C38.7734862,78.5104 38.9142069,78.4444918 39.0092039,78.3305003 L54.4782039,59.7685003 C54.6053815,59.6158938 54.6301538,59.4024736 54.5413136,59.2247932 L49.9003136,49.9427932 C49.7390585,49.6202831 49.2998211,49.5693057 49.0689871,49.8463105 L25.8659871,77.6903105 C25.5946042,78.0159746 25.8261828,78.5104 26.2501,78.5104 L38.6251,78.5104 Z M26.6342129,78.3304895 L49.8372129,50.4864895 L49.0058864,50.3900068 L53.6468864,59.6720068 L53.7099961,59.1282997 L38.2409961,77.6902997 L38.6251,77.5104 L26.2501,77.5104 L26.6342129,78.3304895 Z" id="Fill-7"></path>
            <path d="M75.3055861,78.2396017 C75.4805609,78.5779044 75.9544322,78.604164 76.1657148,78.2872656 L80.2907148,72.1002656 C80.5122501,71.7679895 80.2740561,71.3229 79.8747,71.3229 L72.5497,71.3229 C72.1750155,71.3229 71.9334548,71.7197965 72.1055861,72.0526017 L75.3055861,78.2396017 Z M72.5497,72.3229 L79.8747,72.3229 L79.4586852,71.5455344 L75.3336852,77.7325344 L76.1938139,77.7801983 L72.9938139,71.5931983 L72.5497,72.3229 Z" id="Fill-9"></path>
        </g>
    </g>
</svg>